<svg xmlns="http://www.w3.org/2000/svg" width="818" height="161" viewBox="0 0 818 161" fill="none">
<path d="M110.43 0.0200195C115.34 0.0200195 119.95 0.980015 124.26 2.89001C128.57 4.81001 132.34 7.38002 135.57 10.61C138.8 13.84 141.38 17.61 143.29 21.92C145.2 26.23 146.16 30.84 146.16 35.75C146.16 41.14 144.96 46.23 142.57 51.01C147.12 54.24 150.74 58.34 153.43 63.31C156.12 68.28 157.47 73.7 157.47 79.56C157.47 84.35 156.54 88.87 154.69 93.12C152.83 97.37 150.32 101.11 147.15 104.34C143.98 107.57 140.26 110.12 136.02 111.97C131.77 113.83 127.25 114.75 122.46 114.75H0V44.36H110.25C112.64 44.36 114.68 43.52 116.36 41.85C118.04 40.18 118.87 38.14 118.87 35.74C118.87 33.34 118.03 31.31 116.36 29.64C114.68 27.96 112.65 27.13 110.25 27.13H27.29V35.03L0 23.36V7.74002C0 5.59002 0.749998 3.76001 2.24 2.26001C3.74 0.76001 5.56 0.0200195 7.72 0.0200195H110.43ZM122.46 87.47C124.61 87.47 126.47 86.69 128.03 85.14C129.58 83.59 130.36 81.73 130.36 79.57C130.36 77.41 129.58 75.56 128.03 74C126.47 72.45 124.62 71.67 122.46 71.67H27.29V87.47H122.46Z" fill="#2E2D2C"/>
<path d="M191.05 57.3C191.05 61.37 191.86 65.26 193.47 68.97C195.09 72.68 197.24 75.88 199.93 78.58C202.62 81.27 205.82 83.43 209.54 85.04C213.25 86.66 217.14 87.46 221.21 87.46H295.73V75.79L323.02 68.07V107.04C323.02 109.08 322.27 110.87 320.78 112.43C319.28 113.99 317.46 114.76 315.3 114.76H221.03C213.13 114.76 205.71 113.23 198.76 110.18C191.82 107.13 185.74 103 180.53 97.79C175.32 92.58 171.22 86.51 168.23 79.56C165.24 72.62 163.74 65.19 163.74 57.29V0.0100098H191.03V57.29L191.05 57.3Z" fill="#2E2D2C"/>
<path d="M379.95 63.59H436.33L418.37 30.91C417.29 29 415.97 27.89 414.42 27.59C412.86 27.29 411.48 27.14 410.29 27.14H360.19V114.77H332.9V7.75003C332.9 5.60003 333.65 3.77002 335.14 2.27002C336.64 0.77002 338.46 0.0300293 340.62 0.0300293H411.19C417.65 0.0300293 423.43 1.14001 428.52 3.35001C433.61 5.57001 437.71 9.54001 440.82 15.29L495.23 114.77H464.34L451.05 90.89H379.94V63.6L379.95 63.59Z" fill="#2E2D2C"/>
<path d="M546.23 114.76C538.33 114.76 530.91 113.23 523.96 110.18C517.02 107.13 510.94 103 505.73 97.79C500.52 92.58 496.42 86.51 493.43 79.56C490.44 72.62 488.94 65.19 488.94 57.29C488.94 49.39 490.44 41.97 493.43 35.02C496.42 28.08 500.52 22 505.73 16.79C510.94 11.58 517.01 7.47999 523.96 4.48999C530.9 1.49999 538.33 0 546.23 0H640.5C642.65 0 644.48 0.74999 645.98 2.23999C647.48 3.73999 648.22 5.55997 648.22 7.71997V23.34L620.93 35.01V27.11H546.41C542.34 27.11 538.45 27.92 534.74 29.53C531.03 31.15 527.83 33.3 525.13 35.99C522.44 38.68 520.28 41.86 518.67 45.51C517.05 49.16 516.25 53.08 516.25 57.27C516.25 61.46 517.06 65.23 518.67 68.94C520.29 72.65 522.44 75.85 525.13 78.55C527.82 81.24 531.03 83.4 534.74 85.01C538.45 86.63 542.34 87.43 546.41 87.43H620.93V75.76L648.22 68.04V107.01C648.22 109.05 647.47 110.84 645.98 112.4C644.48 113.96 642.66 114.73 640.5 114.73H546.23V114.76Z" fill="#2E2D2C"/>
<path d="M767.99 30.37L749.67 63.59H778.76L817.91 114.77H783.61L765.11 90.89H734.4C732.24 94.84 730.12 98.31 728.03 101.3C725.93 104.29 723.51 106.78 720.76 108.75C718 110.73 714.71 112.22 710.88 113.24C707.05 114.26 702.26 114.77 696.51 114.77C691.48 114.77 686.75 113.81 682.32 111.9C677.89 109.99 674 107.35 670.65 104C667.3 100.65 664.66 96.76 662.75 92.33C660.83 87.9 659.88 83.17 659.88 78.14V0.0300293H686.99V78.14C686.99 81.61 688.19 84.07 690.58 85.5C692.97 86.94 695.73 87.65 698.84 87.65C701 87.65 702.94 87.26 704.68 86.48C706.41 85.7 707.82 84.3 708.9 82.26L750.92 6.48001C752 4.45001 753.52 2.86 755.5 1.72C757.48 0.580001 759.6 0.0100098 761.87 0.0100098H810.17C812.32 0.0100098 814.15 0.760031 815.65 2.25003C817.15 3.75003 817.89 5.57001 817.89 7.73001V23.35L790.6 35.02V27.12H773.54C771.03 27.12 769.17 28.2 767.97 30.35L767.99 30.37Z" fill="#2E2D2C"/>
<path d="M662.85 146.82C662.85 147.76 663.04 148.65 663.41 149.51C663.78 150.36 664.28 151.1 664.9 151.72C665.52 152.34 666.26 152.84 667.11 153.21C667.96 153.58 668.86 153.77 669.8 153.77H686.95V151.08L693.23 149.3V158.27C693.23 158.74 693.06 159.15 692.71 159.51C692.36 159.87 691.95 160.05 691.45 160.05H669.75C667.93 160.05 666.22 159.7 664.62 159C663.02 158.3 661.62 157.35 660.42 156.15C659.22 154.95 658.28 153.55 657.59 151.95C656.9 150.35 656.56 148.64 656.56 146.82V133.63H662.84V146.82H662.85Z" fill="#2E2D2C"/>
<path d="M722.7 154.55H706.33V148.27H719.31L715.18 140.75C714.96 140.36 714.69 140.12 714.37 140.03C714.05 139.93 713.7 139.89 713.32 139.89H701.79V160.06H695.51V135.42C695.51 134.92 695.68 134.5 696.03 134.16C696.38 133.82 696.79 133.64 697.29 133.64H713.53C714.96 133.64 716.28 133.9 717.48 134.4C718.68 134.91 719.64 135.83 720.35 137.15L729.28 153.44C729.36 153.6 729.71 153.72 730.31 153.77C730.92 153.83 731.6 153.85 732.38 153.85C733.16 153.85 733.95 153.84 734.69 153.81C735.43 153.78 735.93 153.77 736.18 153.77V160.05H727.91C727.17 160.05 726.53 159.86 726.01 159.49C725.49 159.12 725.03 158.66 724.65 158.11C724.26 157.56 723.92 156.96 723.62 156.31C723.32 155.66 723.01 155.08 722.71 154.55H722.7ZM735.43 139.88V141.7L729.15 139.01V135.41C729.15 134.91 729.32 134.49 729.67 134.15C730.01 133.81 730.43 133.63 730.93 133.63H767.22C768.35 133.63 769.41 133.85 770.4 134.29C771.39 134.73 772.26 135.32 773 136.07C773.74 136.82 774.34 137.68 774.78 138.67C775.22 139.66 775.44 140.72 775.44 141.85C775.44 143.09 775.16 144.26 774.61 145.36C775.66 146.13 776.49 147.09 777.11 148.23C777.73 149.37 778.04 150.61 778.04 151.93C778.04 153.03 777.83 154.07 777.4 155.05C776.97 156.03 776.39 156.89 775.66 157.63C774.93 158.37 774.07 158.96 773.1 159.39C772.12 159.82 771.08 160.03 769.98 160.03H741.79V143.83H767.17C767.72 143.83 768.19 143.64 768.58 143.25C768.97 142.86 769.16 142.4 769.16 141.85C769.16 141.3 768.98 140.83 768.62 140.44C768.26 140.05 767.81 139.86 767.26 139.86H735.43V139.88ZM729.89 147.03C729.89 146.15 730.19 145.4 730.8 144.8C731.41 144.2 732.15 143.89 733.03 143.89C733.91 143.89 734.66 144.19 735.26 144.8C735.87 145.41 736.17 146.15 736.17 147.03C736.17 147.91 735.87 148.66 735.26 149.26C734.65 149.86 733.91 150.17 733.03 150.17C732.15 150.17 731.4 149.87 730.8 149.26C730.19 148.65 729.89 147.91 729.89 147.03ZM769.99 153.76C770.49 153.76 770.91 153.58 771.27 153.22C771.63 152.86 771.81 152.43 771.81 151.94C771.81 151.45 771.63 151.02 771.27 150.66C770.91 150.3 770.48 150.12 769.99 150.12H748.08V153.76H769.99Z" fill="#2E2D2C"/>
<path d="M787.76 139.88C787.21 139.88 786.73 140.07 786.33 140.46C785.93 140.85 785.73 141.31 785.73 141.87C785.73 142.43 785.93 142.9 786.33 143.3C786.73 143.7 787.2 143.9 787.76 143.9H807.19C808.29 143.9 809.33 144.11 810.31 144.54C811.29 144.97 812.14 145.55 812.87 146.28C813.6 147.01 814.18 147.86 814.61 148.84C815.04 149.82 815.25 150.86 815.25 151.96C815.25 153.06 815.04 154.1 814.61 155.08C814.18 156.06 813.6 156.92 812.87 157.66C812.14 158.4 811.29 158.99 810.31 159.42C809.33 159.85 808.29 160.06 807.19 160.06H781.27C780.77 160.06 780.35 159.89 780.01 159.54C779.67 159.2 779.49 158.78 779.49 158.28V154.68L785.77 151.99V153.77H807.18C807.68 153.77 808.1 153.59 808.46 153.23C808.82 152.87 809 152.44 809 151.95C809 151.46 808.82 151.03 808.46 150.67C808.1 150.31 807.68 150.13 807.18 150.13H787.75C786.62 150.13 785.55 149.91 784.55 149.47C783.55 149.03 782.67 148.44 781.93 147.69C781.19 146.94 780.59 146.07 780.15 145.07C779.71 144.07 779.49 143 779.49 141.87C779.49 140.74 779.71 139.68 780.15 138.69C780.59 137.7 781.18 136.83 781.93 136.09C782.68 135.35 783.55 134.75 784.55 134.31C785.56 133.87 786.62 133.65 787.75 133.65H813.46C813.96 133.65 814.38 133.82 814.72 134.17C815.06 134.52 815.24 134.93 815.24 135.43V139.03L808.96 141.72V139.9H787.76V139.88Z" fill="#2E2D2C"/>
</svg>
