<svg xmlns="http://www.w3.org/2000/svg" version="1.1" xmlns:xlink="http://www.w3.org/1999/xlink" width="173" height="200"><svg xmlns="http://www.w3.org/2000/svg" version="1.1" xmlns:xlink="http://www.w3.org/1999/xlink" width="173" height="200"><svg width="173" height="200" viewBox="0 0 173 200" fill="none" xmlns="http://www.w3.org/2000/svg">
<path d="M141.203 94.6238C144.283 91.4305 147.09 88.4672 149.623 85.7338C156.253 78.5738 171.763 58.9838 163.653 49.5738C163.447 49.3335 163.324 49.0334 163.301 48.717C163.277 48.4006 163.355 48.0843 163.523 47.8138C164.256 46.6405 164.766 45.3605 165.053 43.9738C165.08 43.8435 165.141 43.7225 165.229 43.6227C165.317 43.5228 165.43 43.4476 165.556 43.4043C165.682 43.3609 165.817 43.351 165.948 43.3755C166.079 43.4 166.201 43.458 166.303 43.5438C184.133 58.4538 156.833 88.4338 145.563 98.7938C145.474 98.874 145.404 98.9717 145.355 99.0809C145.306 99.1901 145.281 99.3084 145.28 99.4285C145.279 99.5486 145.302 99.6678 145.349 99.7788C145.396 99.8899 145.466 99.9903 145.553 100.074C154.153 108.274 161.14 117.481 166.513 127.694C169.393 133.161 170.833 138.564 170.833 143.904C170.833 154.674 160.853 160.034 151.313 160.694C139.293 161.544 126.853 158.784 115.723 154.634C115.647 154.605 115.566 154.593 115.485 154.598C115.404 154.604 115.325 154.627 115.253 154.665C115.181 154.704 115.118 154.758 115.068 154.823C115.018 154.889 114.982 154.964 114.963 155.044L113.623 160.604C113.569 160.826 113.428 161.018 113.232 161.138C113.035 161.258 112.798 161.296 112.573 161.244L108.893 160.354C108.549 160.271 108.251 160.055 108.066 159.753C107.88 159.451 107.822 159.089 107.903 158.744L109.233 153.194C109.286 152.974 109.258 152.742 109.155 152.542C109.052 152.342 108.881 152.186 108.673 152.104C101.406 149.231 94.6329 146.074 88.3529 142.634C88.1335 142.514 87.8893 142.447 87.6405 142.44C87.3918 142.433 87.1457 142.486 86.9229 142.594L63.0829 153.814C63.0147 153.846 62.9591 153.899 62.9247 153.966C62.8903 154.033 62.8791 154.11 62.8929 154.184C65.6229 166.974 70.1829 181.224 79.6629 190.374C79.9553 190.66 80.2773 190.911 80.6229 191.124C88.9329 196.174 94.9629 188.334 98.6329 181.814C98.7493 181.607 98.9392 181.451 99.1651 181.377C99.391 181.303 99.6364 181.316 99.8529 181.414L103.783 183.224C103.89 183.273 103.986 183.343 104.065 183.43C104.144 183.518 104.204 183.62 104.242 183.731C104.281 183.842 104.296 183.96 104.288 184.078C104.279 184.195 104.247 184.309 104.193 184.414C102.226 188.267 99.6829 191.674 96.5629 194.634C89.2929 201.554 79.3529 199.944 73.1529 192.804C68.7062 187.691 65.0596 181.354 62.2129 173.794C59.5062 166.587 57.7796 160.754 57.0329 156.294C57.0198 156.21 56.9877 156.13 56.9392 156.06C56.8906 155.99 56.8268 155.933 56.7526 155.891C56.6784 155.85 56.5958 155.826 56.5109 155.821C56.4261 155.816 56.3413 155.831 56.2629 155.864C54.9629 156.411 52.3262 157.254 48.3529 158.394C36.0129 161.934 9.85289 166.224 3.34289 150.864C-3.23711 135.314 17.2329 110.114 27.7029 99.5538C27.7963 99.4575 27.8487 99.3289 27.8487 99.196C27.8487 99.063 27.7963 98.9365 27.7029 98.8438L22.8929 94.0438C22.7927 93.9427 22.7366 93.8062 22.7366 93.6638C22.7366 93.5215 22.7927 93.385 22.8929 93.2838L26.2229 89.9538C26.3698 89.8103 26.5667 89.7299 26.7708 89.7299C26.9749 89.7299 27.1697 89.8103 27.3129 89.9538L31.8229 94.4638C31.887 94.5285 31.9634 94.5799 32.0475 94.615C32.1316 94.65 32.2218 94.668 32.3129 94.668C32.404 94.668 32.4942 94.65 32.5783 94.615C32.6624 94.5799 32.7387 94.5285 32.8029 94.4638C38.3496 89.0305 44.2696 84.0005 50.5629 79.3738C50.7771 79.216 50.9561 79.0154 51.0887 78.7847C51.2212 78.5541 51.3044 78.2984 51.3329 78.0338L54.6729 49.6338C54.6761 49.6115 54.6709 49.5885 54.6582 49.5685C54.6455 49.5485 54.626 49.5328 54.6029 49.5238C43.0729 45.0838 28.6029 41.3338 16.3229 43.1438C-0.46711 45.6338 7.80289 62.4538 13.3629 70.4538C13.395 70.5009 13.4175 70.554 13.4288 70.6096C13.4402 70.6653 13.4403 70.7225 13.4291 70.7777C13.4178 70.8329 13.3955 70.885 13.3635 70.9307C13.3315 70.9765 13.2905 71.015 13.2429 71.0438L8.71289 73.8738C8.6429 73.9182 8.55879 73.9346 8.47727 73.9197C8.39575 73.9049 8.3228 73.86 8.27289 73.7938C1.39289 64.5938 -6.03711 47.0338 7.79289 39.4038C13.7329 36.1138 21.6329 35.7138 28.3229 36.5038C37.6829 37.6038 46.7429 39.7972 55.5029 43.0838C55.5907 43.1162 55.6842 43.1298 55.7776 43.1237C55.8709 43.1177 55.962 43.0922 56.0449 43.0489C56.1278 43.0056 56.2007 42.9454 56.2589 42.8722C56.3171 42.7989 56.3593 42.7144 56.3829 42.6238C58.0096 36.4305 59.1696 32.2205 59.8629 29.9938C63.2729 19.0038 70.6329 2.99384 82.5429 0.39384C102.823 -4.04616 112.563 30.2338 115.593 43.9038C115.61 43.9796 115.643 44.051 115.689 44.1133C115.735 44.1755 115.794 44.2272 115.861 44.265C115.928 44.3028 116.002 44.3258 116.078 44.3325C116.154 44.3392 116.231 44.3294 116.303 44.3038C124.156 41.5572 132.333 39.5572 140.833 38.3038C140.879 38.2975 140.927 38.3019 140.972 38.3166C141.016 38.3312 141.057 38.3559 141.091 38.3887C141.124 38.4214 141.15 38.4614 141.166 38.5056C141.182 38.5498 141.188 38.5971 141.183 38.6438L140.493 44.5238C140.475 44.6537 140.416 44.7739 140.326 44.866C140.236 44.9581 140.119 45.0171 139.993 45.0338C132.766 46.0405 125.326 47.7938 117.673 50.2938C117.548 50.337 117.442 50.4203 117.373 50.5297C117.304 50.6391 117.276 50.7678 117.293 50.8938L120.723 77.5938C120.768 77.9408 120.943 78.2585 121.213 78.4838L140.543 94.6638C140.636 94.742 140.756 94.7813 140.878 94.7738C141.001 94.7664 141.117 94.7128 141.203 94.6238ZM85.7529 56.8138C85.8996 56.8138 85.9796 56.8105 85.9929 56.8038C93.6396 52.9372 101.45 49.4705 109.423 46.4038C109.532 46.3637 109.623 46.2853 109.679 46.1828C109.736 46.0802 109.755 45.9601 109.733 45.8438C107.533 35.2338 99.6029 6.63384 86.1529 6.53384C72.6929 6.42384 64.3129 34.8838 61.9529 45.4638C61.9274 45.5804 61.9436 45.7019 61.9986 45.8065C62.0536 45.911 62.1438 45.9916 62.2529 46.0338C70.1729 49.2272 77.9262 52.8172 85.5129 56.8038C85.5262 56.8105 85.6062 56.8138 85.7529 56.8138ZM60.9029 51.8138C60.8559 51.7932 60.8048 51.7838 60.7536 51.7864C60.7024 51.789 60.6525 51.8035 60.6078 51.8287C60.5632 51.8539 60.525 51.8892 60.4964 51.9318C60.4678 51.9743 60.4494 52.023 60.4429 52.0738L57.9529 73.2438C57.9457 73.3053 57.9559 73.3676 57.9824 73.4236C58.0089 73.4796 58.0506 73.5269 58.1027 73.5603C58.1549 73.5937 58.2154 73.6117 58.2773 73.6124C58.3392 73.613 58.4001 73.5962 58.4529 73.5638L79.0329 60.7038C79.0834 60.6721 79.1243 60.6272 79.1513 60.574C79.1783 60.5209 79.1904 60.4614 79.1863 60.4019C79.1822 60.3424 79.162 60.2851 79.128 60.2362C79.0939 60.1872 79.0472 60.1484 78.9929 60.1238L60.9029 51.8138ZM111.373 52.5438C111.367 52.4928 111.349 52.444 111.32 52.4015C111.291 52.3589 111.253 52.3239 111.208 52.2994C111.163 52.2749 111.112 52.2616 111.061 52.2606C111.01 52.2596 110.959 52.271 110.913 52.2938L93.9229 60.2838C93.8713 60.3087 93.8273 60.347 93.7955 60.3947C93.7638 60.4424 93.7454 60.4977 93.7423 60.555C93.7393 60.6122 93.7516 60.6692 93.7781 60.72C93.8046 60.7708 93.8442 60.8136 93.8929 60.8438L113.533 73.4538C113.584 73.4867 113.644 73.5042 113.705 73.5044C113.765 73.5045 113.825 73.4873 113.877 73.4548C113.928 73.4223 113.969 73.3757 113.995 73.3206C114.021 73.2656 114.031 73.2042 114.023 73.1438L111.373 52.5438ZM87.2629 135.024C96.2829 129.971 105 124.324 113.413 118.084C113.673 117.89 113.889 117.642 114.046 117.357C114.203 117.073 114.298 116.758 114.323 116.434C115.13 105.441 115.203 94.1705 114.543 82.6238C114.522 82.2309 114.407 81.8485 114.209 81.5078C114.011 81.1671 113.735 80.8779 113.403 80.6638L86.8829 63.6538C86.7732 63.5821 86.6454 63.543 86.5143 63.5412C86.3833 63.5395 86.2545 63.5751 86.1429 63.6438L58.1629 81.1238C57.9097 81.2812 57.6984 81.4971 57.547 81.7531C57.3955 82.009 57.3083 82.2975 57.2929 82.5938C56.7196 93.5672 56.8096 104.637 57.5629 115.804C57.5819 116.044 57.6549 116.275 57.7764 116.48C57.8979 116.684 58.0644 116.857 58.2629 116.984L86.3329 134.994C86.469 135.082 86.6273 135.131 86.791 135.137C86.9546 135.142 87.1177 135.103 87.2629 135.024ZM121.513 86.6238C121.464 86.5823 121.404 86.5555 121.341 86.5464C121.277 86.5373 121.213 86.5464 121.154 86.5725C121.096 86.5986 121.046 86.6408 121.01 86.6941C120.974 86.7474 120.955 86.8097 120.953 86.8738L120.993 111.704C120.993 111.769 121.011 111.832 121.046 111.887C121.081 111.942 121.131 111.986 121.19 112.013C121.249 112.04 121.314 112.05 121.378 112.042C121.443 112.033 121.503 112.006 121.553 111.964L135.853 99.5238C135.889 99.4919 135.918 99.4527 135.938 99.4087C135.958 99.3648 135.968 99.3171 135.968 99.2688C135.968 99.2206 135.958 99.1729 135.938 99.129C135.918 99.085 135.889 99.0457 135.853 99.0138L121.513 86.6238ZM50.4829 110.894C50.5309 110.933 50.5891 110.959 50.6507 110.967C50.7124 110.975 50.7751 110.965 50.8316 110.939C50.888 110.913 50.9359 110.871 50.9698 110.819C51.0036 110.767 51.022 110.706 51.0229 110.644L50.8629 87.3638C50.8637 87.2998 50.8458 87.2369 50.8115 87.1828C50.7771 87.1288 50.7278 87.0859 50.6695 87.0594C50.6112 87.0329 50.5464 87.0239 50.4831 87.0336C50.4198 87.0433 50.3606 87.0711 50.3129 87.1138L37.1529 98.8538C37.1186 98.8848 37.0912 98.9226 37.0724 98.9648C37.0537 99.007 37.044 99.0527 37.044 99.0988C37.044 99.145 37.0537 99.1907 37.0724 99.2329C37.0912 99.2751 37.1186 99.3129 37.1529 99.3438L50.4829 110.894ZM32.1429 103.934C23.7129 112.974 15.2729 123.164 10.4729 134.554C7.64289 141.274 6.69289 150.964 15.2529 153.824C27.0429 157.754 43.4429 154.034 55.2629 149.484C55.3657 149.446 55.4514 149.372 55.5046 149.274C55.5577 149.177 55.5749 149.064 55.5529 148.954C53.6329 139.414 52.3496 129.701 51.7029 119.814C51.7029 119.793 51.6974 119.772 51.687 119.752C51.6765 119.733 51.6614 119.717 51.6429 119.704L32.7729 103.904C32.6838 103.828 32.569 103.788 32.4519 103.794C32.3349 103.799 32.2243 103.85 32.1429 103.934ZM140.843 104.224C140.769 104.154 140.671 104.115 140.57 104.113C140.468 104.111 140.369 104.147 140.293 104.214L121.503 119.994C120.955 120.458 120.596 121.105 120.493 121.814L116.713 147.854C116.702 147.937 116.719 148.02 116.76 148.093C116.802 148.165 116.866 148.222 116.943 148.254C127.89 152.847 139.336 154.874 151.283 154.334C157.033 154.074 163.553 151.064 164.533 144.784C165.023 141.574 163.763 136.574 162.413 133.634C157.433 122.764 149.383 112.384 140.843 104.224ZM61.1829 147.334C61.1888 147.385 61.2069 147.434 61.2356 147.476C61.2643 147.519 61.3029 147.554 61.348 147.578C61.3931 147.603 61.4434 147.616 61.4948 147.617C61.5461 147.618 61.5969 147.607 61.6429 147.584L79.9929 138.954C80.0445 138.929 80.0885 138.891 80.1203 138.843C80.152 138.795 80.1704 138.74 80.1735 138.683C80.1765 138.625 80.1642 138.568 80.1377 138.518C80.1112 138.467 80.0716 138.424 80.0229 138.394L58.8129 124.784C58.7616 124.751 58.7021 124.733 58.6412 124.733C58.5803 124.733 58.5207 124.75 58.4692 124.783C58.4178 124.815 58.3767 124.862 58.3508 124.917C58.3249 124.972 58.3152 125.033 58.3229 125.094L61.1829 147.334ZM110.323 146.264C110.37 146.284 110.421 146.294 110.472 146.291C110.523 146.289 110.573 146.274 110.618 146.249C110.663 146.224 110.701 146.188 110.729 146.146C110.758 146.103 110.776 146.055 110.783 146.004L113.573 126.854C113.58 126.792 113.57 126.73 113.543 126.674C113.517 126.618 113.475 126.571 113.423 126.537C113.371 126.504 113.31 126.486 113.248 126.485C113.187 126.485 113.126 126.502 113.073 126.534L94.2229 138.304C94.1724 138.336 94.1315 138.38 94.1045 138.434C94.0775 138.487 94.0654 138.546 94.0695 138.606C94.0736 138.665 94.0938 138.723 94.1278 138.772C94.1619 138.82 94.2085 138.859 94.2629 138.884L110.323 146.264Z" fill="#3EBB9D"></path>
<path d="M153.073 52.0338C158.082 52.0338 162.143 47.973 162.143 42.9638C162.143 37.9546 158.082 33.8938 153.073 33.8938C148.064 33.8938 144.003 37.9546 144.003 42.9638C144.003 47.973 148.064 52.0338 153.073 52.0338Z" fill="#3EBB9D"></path>
<path d="M18.0329 90.7139C22.9372 90.7139 26.9129 86.7382 26.9129 81.8339C26.9129 76.9296 22.9372 72.9539 18.0329 72.9539C13.1286 72.9539 9.15289 76.9296 9.15289 81.8339C9.15289 86.7382 13.1286 90.7139 18.0329 90.7139Z" fill="#3EBB9D"></path>
<path d="M106.653 180.584C111.541 180.584 115.503 176.622 115.503 171.734C115.503 166.846 111.541 162.884 106.653 162.884C101.765 162.884 97.8029 166.846 97.8029 171.734C97.8029 176.622 101.765 180.584 106.653 180.584Z" fill="#3EBB9D"></path>
</svg></svg><style>@media (prefers-color-scheme: light) { :root { filter: none; } }
@media (prefers-color-scheme: dark) { :root { filter: none; } }
</style></svg>