<svg width="913" height="404" viewBox="0 0 913 404" fill="none" xmlns="http://www.w3.org/2000/svg">
<path d="M554.447 345.935C519.894 347.607 496.629 323.719 491.077 290.873L399.296 290.977C400.687 300.31 406.1 307.482 413.807 312.119C420.551 316.178 429.635 316.413 437.391 315.78C446.563 315.034 453.652 310.089 458.949 302.981L486.523 320.621C473.208 338.089 453.431 346.391 432.042 346.446C411.06 346.501 391.147 340.04 376.934 324.073C349.432 293.178 359.527 240.866 394.135 222.594C426.173 205.68 472.249 213.526 485.687 249.839L491.262 264.906L496.106 251.447C507.99 218.424 550.616 200.979 578.24 222.199L589.357 230.738L589.363 203.688C589.369 181.179 589.775 159.3 591.23 137.029L584.353 142.645C573.823 151.245 563.842 159.268 554.273 169.541C564.774 181.101 576.103 189.553 588.413 200.073C583.151 200.988 575.551 202.312 570.73 199.997C560.18 194.939 554.519 183.249 544.916 178.813L527.598 200.108C524.337 201.545 519.055 201.374 514.466 200.247C533.81 168.545 562.805 143.272 592.563 121.846L601.264 75.8928C588.724 72.2603 576.103 69.9693 563.095 68.8834C548.232 67.6435 522.505 70.7969 515.393 85.6984C511.893 93.0301 512.102 100.394 513.633 108.768L502.896 114.807C496.827 94.0028 502.542 72.7597 522.499 63.7555C547.916 52.289 578.231 57.864 605.173 64.0023C610.409 46.9986 617.393 31.2666 627.845 17.3146C638.59 2.97352 656.468 -6.14395 673.448 4.91023C691.224 16.4813 703.409 44.6553 709.932 64.7689C723.006 61.7927 734.591 58.8861 748.034 57.2949C747.865 62.3153 747.497 65.6865 746.826 69.8329C735.145 71.5722 724.432 73.474 713.243 76.5316L722.112 121.039C739.313 132.999 754.815 145.508 770.175 161.155C783.955 145.836 807.362 115.191 802.486 92.4929C805.093 88.4743 807.849 84.6995 811.628 80.3992C816.849 93.9273 815.955 107.531 810.803 119.915C805.907 131.683 799.985 142.314 792.193 152.317L778.794 169.515C786.702 179.541 794.383 189.001 801.478 200.195C797.151 201.446 791.299 201.577 787.744 199.878L770.297 178.781L760.039 187.852C746.349 199.957 748.179 202.898 727.043 200.459L752.605 179.126C755.974 176.086 758.959 173.49 761.773 169.3C749.709 157.195 737.678 147 723.366 136.501C724.772 158.359 725.698 178.696 724.397 200.567C719.96 201.179 716.362 201.118 711.802 200.288C713.832 175.447 712.549 151.794 709.929 127.017C692.859 116.01 676.256 106.297 657.885 96.8542C639.092 106.651 621.892 116.715 604.403 128.121L601.554 166.42C601.461 167.671 604.101 169.962 605.431 169.951L628.112 169.747C628.002 157.436 633.49 147.354 642.627 141.686C652.994 135.255 665.691 135.473 675.391 142.688C683.798 148.943 688.299 158.089 688.148 168.063C688.006 177.645 683.76 187.326 675.15 193.119C664.335 200.395 649.283 199.925 639.458 191.426C636.02 188.45 634.15 185.096 629.799 182.32L629.735 342.517L593.609 342.761L592.241 326.93C581.374 338.469 569.368 345.22 554.447 345.943V345.935ZM698.118 68.1807C692.818 51.2698 685 31.2957 672.112 18.8187C663.652 10.5288 652.12 10.372 642.845 17.8721C630.139 30.7933 622.472 50.0067 616.661 67.3735L658.126 83.9591L698.118 68.1807ZM642.801 90.9714C633.467 86.4069 624.11 82.7976 613.699 79.5107C610.278 90.4052 607.76 100.905 607.322 111.55L642.804 90.9714H642.801ZM707.49 110.466L701.609 79.8649C691.712 83.1606 682.999 86.1659 673.006 90.8291L707.49 110.466ZM454.726 266.462C456.12 251.447 445.279 241.63 431.586 240.756C415.744 239.746 401.404 249.368 399.516 266.471L454.726 266.459V266.462ZM544.57 309.317C554.705 315.516 567.539 314.819 577.105 308.318C585.657 302.505 590.986 292.94 591.404 281.497C591.86 269.035 586.189 257.786 576.291 251.436C566.403 245.091 552.754 244.537 542.828 251.415C532.355 258.674 528.24 271.683 529.416 284.02C530.401 294.328 535.178 303.571 544.57 309.317Z" fill="#3EBB9D"/>
<path d="M185.371 350.926L176.615 371.867C164 402.045 134.213 407.832 104.144 400.851L108.157 367.962C116.91 368.662 124.589 370.926 131.875 367.674C139.138 364.431 141.781 356.646 144.621 349.791C146.398 345.502 147.516 341.115 145.533 336.472L103.281 237.539C96.6976 242.608 92.4431 247.005 86.8295 252.62C76.9759 244.316 64.2444 239.647 51.4547 243.183C46.6252 244.519 43.7328 248.465 43.7705 252.986C43.8054 257.246 47.209 261.038 51.9572 262.31C68.4118 266.715 92.6319 270.687 101.635 285.527C114.401 306.573 104.449 333.072 81.7212 341.899C57.8496 351.17 20.9966 346.452 0 328.069L22.1844 304.523C32.915 314.883 46.9244 320.824 61.2851 316.858C66.1553 315.513 69.5531 311.274 69.5589 306.831C69.5647 302.519 66.4195 297.906 61.6278 296.5L34.4629 288.544C26.253 286.14 17.7905 281.892 12.9726 274.383C4.1151 260.573 6.04051 241.464 16.986 229.348C34.3787 210.096 72.9189 211.322 94.659 220.901C94.8158 220.088 96.3288 218.064 97.5718 218.067L139.516 218.157L158 271.828L166.762 296.637C167 297.31 168.104 298.428 168.417 298.779C168.838 299.25 170.523 297.635 170.714 297.014L195.193 218.148L271.672 218.052L272.753 235.948C282.446 221.577 296.029 214.678 312.919 214.632C344.484 214.548 357.651 240.715 357.482 269.075L357.047 342.671L316.755 342.619L316.509 270.051C316.485 263.172 313.854 255.701 309.161 251.076C303.887 245.875 296.372 245.895 289.294 247.983C275.874 251.947 274.08 267.461 274.077 279.409L274.054 342.537L233.414 342.523L233.248 250.219C233.239 244.711 233.925 239.597 231.192 233.79L185.368 350.917L185.371 350.926Z" fill="#3EBB9D"/>
<path d="M876.735 342.764L875.041 329.831C868.365 335.566 862.763 340.621 855.143 343.025C837.044 348.731 817.784 345.705 802.997 333.286C773.468 354.242 726.863 350.165 703.25 322.25C691.392 307.438 687.237 288.983 689.766 270.118C693.138 244.981 710.208 224.815 734.504 217.695C757.948 210.735 785.563 213.305 805.366 229.591C825.323 213.119 865.432 209.167 887.834 220.497C908.137 230.767 912.618 256.427 912.641 277.351L912.713 342.514L876.732 342.764H876.735ZM811.845 276.52C830.522 266.352 853.168 265.17 874.15 264.351C875.93 254.766 870.046 246.56 860.382 244.133C845.899 240.495 831.497 245.361 819.84 255.623L800.554 235.126L781.852 256.99C769.405 242.672 749.105 243.52 737.701 257.49C730.624 266.157 728.585 276.886 730.601 288.085C732.613 299.273 741.052 308.986 750.415 311.985C762.679 315.911 773.933 312.72 782.741 304.784L792.905 314.694C793.349 297.238 795.646 285.341 811.848 276.523L811.845 276.52ZM869.93 310.754C875.489 304.244 876.014 295.696 875.889 288.094C862.748 286.831 831.178 286.825 830.054 303.797C829.752 308.338 830.946 313.083 835.348 315.653C845.879 321.8 861.5 320.629 869.93 310.757V310.754Z" fill="#3EBB9D"/>
<path d="M683.453 342.308L643.028 342.706L643.01 218.32L683.458 218.049L683.453 342.308Z" fill="#3EBB9D"/>
<path d="M788.235 87.6438C777.185 91.6973 765.662 86.3313 760.463 76.5373C755.198 66.6156 758.358 53.8308 768.06 47.3121C779.7 39.4926 794.839 44.1501 800.749 56.4325C806.377 68.1342 801.324 82.8441 788.235 87.6438Z" fill="#3EBB9D"/>
<path d="M544.21 136.193C546.751 145.572 542.894 155.206 535.988 160.281C528.037 166.126 517.736 166.608 509.645 160.371C502.318 154.724 498.79 144.462 501.319 135.708C504.319 125.336 512.93 119.096 522.752 119.119C532.718 119.143 541.294 125.441 544.207 136.193H544.21Z" fill="#3EBB9D"/>
</svg>
